<mxfile host="app.diagrams.net" agent="Mozilla/5.0 (X11; CrOS x86_64 14541.0.0) AppleWebKit/537.36 (KHTML, like Gecko) Chrome/138.0.0.0 Safari/537.36" version="28.1.1">
  <diagram name="Page-1" id="ydEJsy_idKC2rOgfb-81">
    <mxGraphModel dx="824" dy="479" grid="1" gridSize="10" guides="1" tooltips="1" connect="1" arrows="1" fold="1" page="1" pageScale="1" pageWidth="850" pageHeight="1100" math="0" shadow="0">
      <root>
        <mxCell id="0" />
        <mxCell id="1" parent="0" />
        <mxCell id="ppF3k4GjMblExi6PM3ya-1" value="&lt;h1 style=&quot;margin-top: 0px;&quot;&gt;CCA Octoprint App&lt;/h1&gt;&lt;div&gt;Alternative to the individual Octoprint Instance UIs, leveraging Go templates with frequent calls to the Octoprint API&lt;/div&gt;" style="text;html=1;whiteSpace=wrap;overflow=hidden;rounded=0;" vertex="1" parent="1">
          <mxGeometry x="320" y="10" width="240" height="120" as="geometry" />
        </mxCell>
        <mxCell id="ppF3k4GjMblExi6PM3ya-3" value="Frontend HTML" style="rounded=1;whiteSpace=wrap;html=1;" vertex="1" parent="1">
          <mxGeometry x="40" y="190" width="120" height="60" as="geometry" />
        </mxCell>
        <mxCell id="ppF3k4GjMblExi6PM3ya-4" value="" style="endArrow=none;html=1;rounded=0;" edge="1" parent="1">
          <mxGeometry width="50" height="50" relative="1" as="geometry">
            <mxPoint x="100" y="310" as="sourcePoint" />
            <mxPoint x="100" y="250" as="targetPoint" />
          </mxGeometry>
        </mxCell>
        <mxCell id="ppF3k4GjMblExi6PM3ya-6" value="JS Functions to call Go HTTP handlers" style="rounded=1;whiteSpace=wrap;html=1;" vertex="1" parent="1">
          <mxGeometry x="40" y="310" width="120" height="60" as="geometry" />
        </mxCell>
        <mxCell id="ppF3k4GjMblExi6PM3ya-7" value="" style="endArrow=classic;html=1;rounded=0;" edge="1" parent="1">
          <mxGeometry width="50" height="50" relative="1" as="geometry">
            <mxPoint x="99.5" y="370" as="sourcePoint" />
            <mxPoint x="99.5" y="430" as="targetPoint" />
          </mxGeometry>
        </mxCell>
        <mxCell id="ppF3k4GjMblExi6PM3ya-8" value="Go Backend" style="rounded=1;whiteSpace=wrap;html=1;" vertex="1" parent="1">
          <mxGeometry x="40" y="440" width="120" height="60" as="geometry" />
        </mxCell>
      </root>
    </mxGraphModel>
  </diagram>
</mxfile>
